<?xml version="1.0" encoding="UTF-8" standalone="no"?>
<svg xmlns="http://www.w3.org/2000/svg" width="500" height="500" >
    <g>
        <title>upPrev - WordPress plugin</title>
    </g>
    <g transform="translate(0,-552.36217)">
        <g transform="matrix(0.19069416,0,0,-0.19069416,20.089844,897.99927)">
            <path
                id="path3663"
                style="fill:#112b00"
                d="m 0,800 600,900 600,-900 -400,0 0,-1502.69588 -400,0 L 400,800 z M 2124.3999,323.8485 c -7e-4,65.24944 -12.9466,118.58853 -38.8391,160.01743 -25.8934,42.46357 -65.2506,63.69571 -118.0712,63.69625 -14.5002,-5.4e-4 -30.0359,-1.03623 -46.607,-3.10713 -16.5719,-1.03623 -30.554,-2.07168 -41.9463,-3.10714 l 0,-400.82034 c 12.4285,-8.28588 28.9997,-15.01795 49.7142,-20.19638 20.7137,-5.17881 41.4282,-7.76799 62.1427,-7.76783 45.5707,-1.6e-4 79.2311,18.12477 100.9818,54.37485 21.7492,37.28538 32.6242,89.58878 32.6249,156.91029 m 194.1959,6.21427 c -7e-4,-55.92873 -6.2142,-107.71425 -18.6428,-155.35672 -12.4293,-46.60718 -30.554,-86.999925 -54.3748,-121.178249 -23.8216,-33.142794 -53.8575,-59.0355553 -90.1069,-77.678362 -36.2502,-18.642807 -78.1965,-27.964211 -125.839,-27.964211 -48.6787,0 -98.9109,11.910657 -150.696,35.732047 l 0,-274.981405 -191.0888,0 0,963.21169 c 35.214,11.39208 78.1957,20.71348 128.9461,27.96421 51.7851,7.24895 102.5355,10.8742 152.2496,10.87497 112.8923,-7.7e-4 199.374,-34.17917 259.4457,-102.53543 60.0703,-68.35751 90.1062,-161.05366 90.1069,-278.08854 M 1493.6516,-10.168456 c -35.2147,-9.321403 -78.1964,-18.642807 -128.946,-27.96421 -49.715,-9.321404 -104.0898,-13.982106 -163.1246,-13.982106 -60.0718,0 -109.2678,8.285718 -147.5889,24.857076 -38.3218,16.571358 -68.87507,39.874867 -91.66046,69.910526 -21.74994,31.071267 -36.7675,67.32112 -45.05345,108.74971 -8.28595,41.4282 -12.42854,86.99945 -12.42854,136.71391 l 0,407.03462 191.08875,0 0,-382.17754 c 0,-67.32151 7.7679,-117.55346 23.3035,-150.69602 16.5712,-32.10719 48.1606,-48.16074 94.7676,-48.16059 28.9997,-1.5e-4 57.9994,2.58902 86.9998,7.76784 l 0,573.26631 192.6423,0 0,-705.319526" />
        </g>
    </g>
</svg>
